<svg xmlns="http://www.w3.org/2000/svg" width="905.518" height="925.8" viewBox="0 0 905.518 925.8">
  <g id="k_79" data-name="k 79" fill="none">
    <path d="M452.759,0C702.811,0,905.518,207.247,905.518,462.9S702.811,925.8,452.759,925.8,0,718.553,0,462.9,202.707,0,452.759,0Z" stroke="none"/>
    <path d="M 452.7591247558594 30 C 219.6489868164062 30 30 224.1981201171875 30 462.8999938964844 C 30 701.6018676757812 219.6489868164062 895.7999877929688 452.7591247558594 895.7999877929688 C 685.8692626953125 895.7999877929688 875.5182495117188 701.6018676757812 875.5182495117188 462.8999938964844 C 875.5182495117188 224.1981201171875 685.8692626953125 30 452.7591247558594 30 M 452.7591247558594 0 C 702.8111572265625 0 905.5182495117188 207.2474365234375 905.5182495117188 462.8999938964844 C 905.5182495117188 718.5525512695312 702.8111572265625 925.7999877929688 452.7591247558594 925.7999877929688 C 202.707275390625 925.7999877929688 0 718.5525512695312 0 462.8999938964844 C 0 207.2474365234375 202.707275390625 0 452.7591247558594 0 Z" stroke="none" fill="#fff200"/>
  </g>
</svg>
