<svg xmlns="http://www.w3.org/2000/svg" width="470.839" height="481.385" viewBox="0 0 470.839 481.385">
  <g id="Контур_79" data-name="Контур 79" fill="none">
    <path d="M235.42,0c130.019,0,235.42,107.762,235.42,240.693s-105.4,240.693-235.42,240.693S0,373.623,0,240.693,105.4,0,235.42,0Z" stroke="none"/>
    <path d="M 235.4196472167969 5.000030517578125 C 219.7900543212891 5.000030517578125 204.1716613769531 6.609619140625 188.9982604980469 9.784088134765625 C 174.2119750976562 12.8775634765625 159.6673278808594 17.49362182617188 145.7682495117188 23.50408935546875 C 132.1185913085938 29.40673828125 118.9525146484375 36.71322631835938 106.6359252929688 45.22055053710938 C 94.43292236328125 53.64935302734375 82.95712280273438 63.3299560546875 72.52731323242188 73.99334716796875 C 62.0955810546875 84.65869140625 52.6246337890625 96.39474487304688 44.37750244140625 108.8755493164062 C 36.05078125 121.476806640625 28.89892578125 134.9482116699219 23.12063598632812 148.9155578613281 C 17.23526000976562 163.1418151855469 12.71505737304688 178.0297546386719 9.685638427734375 193.1658935546875 C 6.576446533203125 208.7003479003906 4.999969482421875 224.6906127929688 4.999969482421875 240.6925506591797 C 4.999969482421875 256.6944885253906 6.576446533203125 272.6847534179688 9.685638427734375 288.21923828125 C 12.71505737304688 303.3552856445312 17.23526000976562 318.2432861328125 23.12063598632812 332.4695434570312 C 28.89892578125 346.4368896484375 36.05078125 359.9082946777344 44.37750244140625 372.5095520019531 C 52.6246337890625 384.9902954101562 62.0955810546875 396.7263488769531 72.52731323242188 407.3916931152344 C 82.95712280273438 418.0551452636719 94.43292236328125 427.7357482910156 106.6359252929688 436.16455078125 C 118.9525146484375 444.671875 132.1185913085938 451.9783630371094 145.7682495117188 457.8810119628906 C 159.6673278808594 463.8914794921875 174.2119750976562 468.5075378417969 188.9982604980469 471.6010131835938 C 204.1716613769531 474.7754821777344 219.7900543212891 476.3850708007812 235.4196472167969 476.3850708007812 C 251.0492401123047 476.3850708007812 266.6676635742188 474.7754821777344 281.841064453125 471.6010131835938 C 296.6273193359375 468.5075378417969 311.1719970703125 463.8914794921875 325.071044921875 457.8810119628906 C 338.720703125 451.9783630371094 351.8867797851562 444.671875 364.203369140625 436.16455078125 C 376.4063720703125 427.7357482910156 387.8821716308594 418.0551452636719 398.3119812011719 407.3916931152344 C 408.7437133789062 396.7263488769531 418.2146606445312 384.9902954101562 426.4617919921875 372.5095520019531 C 434.7885131835938 359.9082946777344 441.9403686523438 346.4368896484375 447.7186584472656 332.4695434570312 C 453.6040344238281 318.2432861328125 458.1242370605469 303.3552856445312 461.1536560058594 288.21923828125 C 464.2628479003906 272.6847534179688 465.8393249511719 256.6944885253906 465.8393249511719 240.6925506591797 C 465.8393249511719 224.6906127929688 464.2628479003906 208.7003479003906 461.1536560058594 193.1658935546875 C 458.1242370605469 178.0297546386719 453.6040344238281 163.1418151855469 447.7186584472656 148.9155578613281 C 441.9403686523438 134.9482116699219 434.7885131835938 121.476806640625 426.4617919921875 108.8755493164062 C 418.2146606445312 96.39474487304688 408.7437133789062 84.65869140625 398.3119812011719 73.99334716796875 C 387.8821716308594 63.3299560546875 376.4063720703125 53.64935302734375 364.203369140625 45.22055053710938 C 351.8867797851562 36.71322631835938 338.720703125 29.40673828125 325.071044921875 23.50408935546875 C 311.1719970703125 17.49362182617188 296.6273193359375 12.8775634765625 281.841064453125 9.784088134765625 C 266.6676635742188 6.609619140625 251.0492401123047 5.000030517578125 235.4196472167969 5.000030517578125 M 235.4196472167969 3.0517578125e-05 C 365.4383239746094 3.0517578125e-05 470.8393249511719 107.7616882324219 470.8393249511719 240.6925506591797 C 470.8393249511719 373.6233520507812 365.4383239746094 481.3850708007812 235.4196472167969 481.3850708007812 C 105.4009704589844 481.3850708007812 -3.0517578125e-05 373.6233520507812 -3.0517578125e-05 240.6925506591797 C -3.0517578125e-05 107.7616882324219 105.4009704589844 3.0517578125e-05 235.4196472167969 3.0517578125e-05 Z" stroke="none" fill="#fff200"/>
  </g>
</svg>
