<svg xmlns="http://www.w3.org/2000/svg" width="14.288" height="17.089" viewBox="0 0 14.288 17.089">
  <path id="Контур_111" data-name="Контур 111" d="M13.556,85.264c-1.725,0-4.247-1.11-7.493-5.474l-.173-.235C.722,72.6,2.948,69.781,4.144,68.894l.621-.464a1.328,1.328,0,0,1,1.852.291l2.015,2.714a1.428,1.428,0,0,1-.275,2l-.479.355a.787.787,0,0,0-.127,1.1l3.314,4.46a.788.788,0,0,0,1.094.2l.479-.355A1.386,1.386,0,0,1,13.7,78.94a1.456,1.456,0,0,1,.93.569l2.018,2.717a1.327,1.327,0,0,1-.257,1.852l-.624.464a3.679,3.679,0,0,1-2.213.723M4.883,69.889c-1.867,1.388-1.119,4.723,2,8.927l.176.232c2.4,3.233,4.717,4.974,6.507,4.974a2.378,2.378,0,0,0,1.459-.476l.624-.464a.081.081,0,0,0,0-.114l-2.018-2.717a.2.2,0,0,0-.133-.087.162.162,0,0,0-.124.028l-.479.355A2.029,2.029,0,0,1,10.07,80.1L6.756,75.632a2.026,2.026,0,0,1,.383-2.838l.479-.355a.187.187,0,0,0,.019-.263L5.619,69.46a.088.088,0,0,0-.111-.034Z" transform="translate(-2.627 -68.176)" fill="#fff"/>
</svg>
