<svg xmlns="http://www.w3.org/2000/svg" xmlns:xlink="http://www.w3.org/1999/xlink" width="139.674" height="183.051" viewBox="0 0 139.674 183.051">
  <defs>
    <clipPath id="clip-path">
      <path id="k_56" data-name="k 56" d="M0,88.1H139.674V-94.949H0Z" transform="translate(0 94.949)" fill="none"/>
    </clipPath>
  </defs>
  <g id="s_53" data-name="s 53" transform="translate(0 94.949)">
    <g id="s_52" data-name="s 52" transform="translate(0 -94.949)" clip-path="url(#clip-path)">
      <g id="s_50" data-name="s 50" transform="translate(2.893 49.161)">
        <path id="k_54" data-name="k 54" d="M32.22,64.441A66.944,66.944,0,0,0,99.164-2.5,66.944,66.944,0,0,0,32.22-69.449,66.944,66.944,0,0,0-34.724-2.5,66.944,66.944,0,0,0,32.22,64.441" transform="translate(34.724 69.449)" fill="#fff200"/>
      </g>
      <g id="s_51" data-name="s 51" transform="translate(2.893 2.892)">
        <path id="k_55" data-name="k 55" d="M32.22,64.441A66.944,66.944,0,0,0,99.164-2.5,66.944,66.944,0,0,0,32.22-69.449,66.944,66.944,0,0,0-34.724-2.5,66.944,66.944,0,0,0,32.22,64.441Z" transform="translate(34.724 69.449)" fill="none" stroke="#00aeef" stroke-width="3"/>
      </g>
    </g>
  </g>
</svg>
