<svg xmlns="http://www.w3.org/2000/svg" width="15.508" height="16.818" viewBox="0 0 15.508 16.818">
  <path id="k_116" data-name="k 116" d="M10.432,81.522a7.73,7.73,0,0,0-5.7,2.4,8.2,8.2,0,0,0-2.368,5.947A8.409,8.409,0,0,0,4.673,95.88a7.75,7.75,0,0,0,5.851,2.46,7.867,7.867,0,0,0,3.938-1.085,7.5,7.5,0,0,0,2.856-2.921H16.19a6.893,6.893,0,0,1-5.678,3,6.7,6.7,0,0,1-5-2.133,7.187,7.187,0,0,1-2-5.178,7.608,7.608,0,0,1,1.96-5.31,6.474,6.474,0,0,1,5-2.176,6.556,6.556,0,0,1,4.4,1.573A5.557,5.557,0,0,1,16.731,88.5a7.148,7.148,0,0,1-1.113,3.762,4.777,4.777,0,0,1-1.156,1.314,2.225,2.225,0,0,1-1.434.544c-.34,0-.516-.2-.532-.6a4.05,4.05,0,0,1,.253-1.286l2.1-6.488H13.7L13.152,87.2q-.779-1.882-2.278-1.882H10.84A4.474,4.474,0,0,0,7.1,87.389a7.592,7.592,0,0,0-1.437,4.439,3.388,3.388,0,0,0,.788,2.278,2.561,2.561,0,0,0,2.1.989,2.714,2.714,0,0,0,1.567-.495,5.3,5.3,0,0,0,1.206-.983h.04a1.666,1.666,0,0,0,.5,1.1,1.281,1.281,0,0,0,.958.408,4.419,4.419,0,0,0,3.437-1.944,7.009,7.009,0,0,0,1.62-4.618,6.756,6.756,0,0,0-2.114-5.1,7.588,7.588,0,0,0-5.329-1.944M8.834,93.9A1.593,1.593,0,0,1,7.545,93.3a2.221,2.221,0,0,1-.522-1.576A6.533,6.533,0,0,1,8.048,88.3,5.229,5.229,0,0,1,9.232,87a2.58,2.58,0,0,1,1.508-.495,1.621,1.621,0,0,1,1.2.627,2.379,2.379,0,0,1,.519,1.468,7.049,7.049,0,0,1-1.023,3.385,4.836,4.836,0,0,1-1.162,1.354,2.136,2.136,0,0,1-1.44.563m8.485.43Z" transform="translate(-2.367 -81.522)" fill="#fff"/>
</svg>
