<svg xmlns="http://www.w3.org/2000/svg" width="259.006" height="86.118" viewBox="0 0 259.006 86.118">
  <g id="Сгруппировать_108" data-name="Сгруппировать 108" transform="translate(-3051.98 -1097.759)">
    <g id="Сгруппировать_193" data-name="Сгруппировать 193" transform="translate(3051.98 1097.759)">
      <circle id="Эллипс_16" data-name="Эллипс 16" cx="9.659" cy="9.659" r="9.659" transform="translate(34.789 37.802)" fill="#fff"/>
      <path id="Контур_752" data-name="Контур 752" d="M3097.8,1111.771l-3.154,6.114-1.4-.547a22.4,22.4,0,0,0-16.155,0l-1.4.547-3.153-6.112c-6.912,5-9.25,16.92-9.622,24.281a46.471,46.471,0,0,1,5.626-5.269,35.351,35.351,0,0,1,7.395-4.569,21.3,21.3,0,0,1,18.471,0,35.392,35.392,0,0,1,7.4,4.569,46.735,46.735,0,0,1,5.626,5.271C3107.055,1128.7,3104.72,1116.771,3097.8,1111.771Z" transform="translate(-3046.456 -1090.677)" fill="#fff"/>
      <path id="Контур_753" data-name="Контур 753" d="M3101.78,1135.92a35.355,35.355,0,0,1-7.4,4.565,21.245,21.245,0,0,1-18.471,0,35.32,35.32,0,0,1-7.395-4.565,46.308,46.308,0,0,1-5.578-5.218,22.31,22.31,0,0,0,44.417,0A46.452,46.452,0,0,1,3101.78,1135.92Z" transform="translate(-3046.439 -1081.107)" fill="#fff"/>
      <path id="Контур_754" data-name="Контур 754" d="M3124.1,1115.412l-28.118-16.234a10.588,10.588,0,0,0-10.591,0l-28.118,16.234a10.592,10.592,0,0,0-5.295,9.172v32.469a10.59,10.59,0,0,0,5.295,9.171l28.118,16.234a10.589,10.589,0,0,0,10.591,0l28.118-16.234a10.589,10.589,0,0,0,5.3-9.171v-32.469A10.591,10.591,0,0,0,3124.1,1115.412Zm-33.413,55.468a25.689,25.689,0,0,1-25.661-25.661c0-8.669,2.716-24.79,12.893-30.223l1.5-.8,3.4,6.6a25.747,25.747,0,0,1,15.734,0l3.4-6.6,1.5.8c10.189,5.439,12.9,21.557,12.894,30.224A25.689,25.689,0,0,1,3090.689,1170.881Z" transform="translate(-3051.98 -1097.759)" fill="#fff"/>
    </g>
    <g id="Сгруппировать_197" data-name="Сгруппировать 197" transform="translate(3139.89 1101.369)">
      <g id="Сгруппировать_194" data-name="Сгруппировать 194" transform="translate(0 46.082)">
        <path id="Контур_755" data-name="Контур 755" d="M3110.373,1138.424c0-4.328,2.914-7.659,7.159-7.659,4.184,0,7.159,3.434,7.159,7.659,0,4.308-2.892,7.658-7.159,7.658C3113.307,1146.083,3110.373,1142.733,3110.373,1138.424Zm11.072,0c0-2.517-1.311-4.786-3.913-4.786s-3.912,2.269-3.912,4.786c0,2.54,1.269,4.787,3.912,4.787S3121.444,1140.964,3121.444,1138.424Z" transform="translate(-3110.373 -1130.766)" fill="#fff"/>
        <path id="Контур_756" data-name="Контур 756" d="M3120.8,1132.472a1.491,1.491,0,0,1,1.561-1.623,1.948,1.948,0,0,1,1.312.687l6.6,8.8h.041v-7.868a1.562,1.562,0,1,1,3.122,0v11.821a1.493,1.493,0,0,1-1.561,1.624,1.993,1.993,0,0,1-1.311-.688l-6.6-8.7h-.042v7.762a1.562,1.562,0,1,1-3.121,0Z" transform="translate(-3105.104 -1130.724)" fill="#fff"/>
        <path id="Контур_757" data-name="Контур 757" d="M3130.627,1132.472a1.562,1.562,0,1,1,3.122,0v10.448h3.7a1.414,1.414,0,0,1,1.5,1.5,1.459,1.459,0,0,1-1.5,1.375h-5.2a1.543,1.543,0,0,1-1.623-1.707Z" transform="translate(-3100.135 -1130.724)" fill="#fff"/>
        <path id="Контур_758" data-name="Контур 758" d="M3136.793,1132.472a1.562,1.562,0,1,1,3.123,0v11.821a1.563,1.563,0,1,1-3.123,0Z" transform="translate(-3097.018 -1130.724)" fill="#fff"/>
        <path id="Контур_759" data-name="Контур 759" d="M3140.3,1132.472a1.492,1.492,0,0,1,1.561-1.623,1.946,1.946,0,0,1,1.311.687l6.6,8.8h.042v-7.868a1.562,1.562,0,1,1,3.121,0v11.821a1.493,1.493,0,0,1-1.561,1.624,1.993,1.993,0,0,1-1.311-.688l-6.6-8.7h-.041v7.762a1.562,1.562,0,1,1-3.122,0Z" transform="translate(-3095.243 -1130.724)" fill="#fff"/>
        <path id="Контур_760" data-name="Контур 760" d="M3150.135,1132.743c0-1.042.519-1.811,1.623-1.811h5.163a1.385,1.385,0,0,1,1.477,1.437,1.408,1.408,0,0,1-1.477,1.436h-3.665v3.038h3.415a1.409,1.409,0,0,1,1.519,1.436,1.433,1.433,0,0,1-1.519,1.436h-3.415v3.163h3.851a1.385,1.385,0,0,1,1.477,1.436,1.408,1.408,0,0,1-1.477,1.437h-5.37a1.519,1.519,0,0,1-1.6-1.561Z" transform="translate(-3090.274 -1130.682)" fill="#fff"/>
        <path id="Контур_761" data-name="Контур 761" d="M3170.155,1140.089l.812-.936c.54-.625.915-.958,1.583-.958a1.215,1.215,0,0,1,1.144,1.311,3.608,3.608,0,0,1-1.144,1.977l-.521.563,1.415,1.6a1.388,1.388,0,0,1,.458,1.041,1.478,1.478,0,0,1-1.458,1.394,1.362,1.362,0,0,1-1.1-.477l-1.436-1.5a6.684,6.684,0,0,1-4.579,1.977c-2.79,0-5.1-1.58-5.1-4.494a5.322,5.322,0,0,1,3.142-4.516,3.85,3.85,0,0,1-1.373-2.811c0-2.371,2.227-3.5,4.37-3.5,1.873,0,4.246,1.061,4.246,3.267a4.4,4.4,0,0,1-2.644,3.643Zm-5.142-1.311a3.1,3.1,0,0,0-1.79,2.519,1.958,1.958,0,0,0,2.165,2.04,3.587,3.587,0,0,0,2.644-1.207Zm1.354-5.64c-.542,0-1.25.416-1.25,1.04s.292,1,1.1,1.79c.625-.312,1.52-.875,1.52-1.623A1.245,1.245,0,0,0,3166.367,1133.139Z" transform="translate(-3085.171 -1130.766)" fill="#fff"/>
        <path id="Контур_762" data-name="Контур 762" d="M3172.809,1138.424c0-4.328,2.913-7.659,7.158-7.659,4.184,0,7.16,3.434,7.16,7.659,0,4.308-2.894,7.658-7.16,7.658C3175.743,1146.083,3172.809,1142.733,3172.809,1138.424Zm11.071,0c0-2.517-1.311-4.786-3.913-4.786s-3.913,2.269-3.913,4.786c0,2.54,1.271,4.787,3.913,4.787S3183.88,1140.964,3183.88,1138.424Z" transform="translate(-3078.812 -1130.766)" fill="#fff"/>
        <path id="Контур_763" data-name="Контур 763" d="M3183.316,1132.555a1.561,1.561,0,0,1,1.623-1.623h5.328a1.437,1.437,0,0,1,0,2.873h-3.829v3.038h3.225a1.4,1.4,0,0,1,1.5,1.415,1.42,1.42,0,0,1-1.5,1.457h-3.225v4.536a1.562,1.562,0,1,1-3.122,0Z" transform="translate(-3073.501 -1130.682)" fill="#fff"/>
        <path id="Контур_764" data-name="Контур 764" d="M3189.814,1132.555a1.561,1.561,0,0,1,1.623-1.623h5.327a1.437,1.437,0,0,1,0,2.873h-3.828v3.038h3.225a1.4,1.4,0,0,1,1.5,1.415,1.419,1.419,0,0,1-1.5,1.457h-3.225v4.536a1.562,1.562,0,1,1-3.122,0Z" transform="translate(-3070.216 -1130.682)" fill="#fff"/>
        <path id="Контур_765" data-name="Контур 765" d="M3196.229,1132.472a1.562,1.562,0,1,1,3.122,0v10.448h3.7a1.413,1.413,0,0,1,1.5,1.5,1.459,1.459,0,0,1-1.5,1.375h-5.2a1.543,1.543,0,0,1-1.623-1.707Z" transform="translate(-3066.973 -1130.724)" fill="#fff"/>
        <path id="Контур_766" data-name="Контур 766" d="M3202.4,1132.472a1.562,1.562,0,1,1,3.122,0v11.821a1.562,1.562,0,1,1-3.122,0Z" transform="translate(-3063.856 -1130.724)" fill="#fff"/>
        <path id="Контур_767" data-name="Контур 767" d="M3205.907,1132.472a1.492,1.492,0,0,1,1.561-1.623,1.944,1.944,0,0,1,1.311.687l6.6,8.8h.042v-7.868a1.562,1.562,0,1,1,3.121,0v11.821a1.493,1.493,0,0,1-1.561,1.624,1.986,1.986,0,0,1-1.309-.688l-6.6-8.7h-.041v7.762a1.562,1.562,0,1,1-3.122,0Z" transform="translate(-3062.081 -1130.724)" fill="#fff"/>
        <path id="Контур_768" data-name="Контур 768" d="M3215.737,1132.743c0-1.042.521-1.811,1.623-1.811h5.163a1.385,1.385,0,0,1,1.477,1.437,1.409,1.409,0,0,1-1.477,1.436h-3.663v3.038h3.413a1.409,1.409,0,0,1,1.519,1.436,1.433,1.433,0,0,1-1.519,1.436h-3.413v3.163h3.85a1.385,1.385,0,0,1,1.478,1.436,1.409,1.409,0,0,1-1.478,1.437h-5.37a1.519,1.519,0,0,1-1.6-1.561Z" transform="translate(-3057.112 -1130.682)" fill="#fff"/>
      </g>
      <g id="Сгруппировать_195" data-name="Сгруппировать 195" transform="translate(0 64.531)">
        <path id="Контур_769" data-name="Контур 769" d="M3122.906,1149.525c1.357,0,1.9.689,1.9,2.067,0,4.157-2.714,7.279-7.022,7.279-4.372,0-7.407-3.467-7.407-7.925,0-4.479,3.014-7.925,7.407-7.925,3.252,0,5.923,1.53,5.923,3.036a1.364,1.364,0,0,1-1.335,1.507c-1.464,0-1.766-1.572-4.588-1.572-2.692,0-4.048,2.347-4.048,4.953,0,2.627,1.314,4.953,4.048,4.953a3.363,3.363,0,0,0,3.661-3.4h-2.2a1.486,1.486,0,1,1,0-2.972Z" transform="translate(-3110.373 -1143.021)" fill="#fff"/>
        <path id="Контур_770" data-name="Контур 770" d="M3120.974,1144.872a1.524,1.524,0,0,1,1.657-1.68h3.791c3.316,0,5.362,1.487,5.362,4.867,0,2.37-1.787,3.726-3.985,4.071l3.661,3.92a1.394,1.394,0,0,1,.43.947,1.648,1.648,0,0,1-1.615,1.657,1.665,1.665,0,0,1-1.248-.558l-4.782-5.793h-.044v4.673a1.616,1.616,0,1,1-3.229,0Zm3.229,5.105h2.22a1.833,1.833,0,0,0,2-1.918,1.8,1.8,0,0,0-2-1.894h-2.22Z" transform="translate(-3105.014 -1142.935)" fill="#fff"/>
        <path id="Контур_771" data-name="Контур 771" d="M3133.35,1144.808a2.535,2.535,0,0,1,2.3-1.787,2.437,2.437,0,0,1,2.3,1.787l4.221,11.716a2.535,2.535,0,0,1,.172.8,1.434,1.434,0,0,1-1.485,1.421,1.509,1.509,0,0,1-1.573-1.119l-.646-2.025h-5.987l-.646,2a1.5,1.5,0,0,1-1.551,1.141,1.545,1.545,0,0,1-1.594-1.507,1.875,1.875,0,0,1,.15-.711Zm.237,7.818h4.092l-2-6.246h-.042Z" transform="translate(-3101.021 -1143.021)" fill="#fff"/>
        <path id="Контур_772" data-name="Контур 772" d="M3138.784,1144.872a1.551,1.551,0,0,1,1.68-1.68h3.813c3.166,0,5.513,2.069,5.513,5.147a5.064,5.064,0,0,1-5.384,5.105h-2.391v3.532a1.617,1.617,0,1,1-3.231,0Zm3.231,5.73h2.2a2.284,2.284,0,0,0,0-4.566h-2.2Z" transform="translate(-3096.011 -1142.935)" fill="#fff"/>
        <path id="Контур_773" data-name="Контур 773" d="M3147.026,1144.786a1.617,1.617,0,1,1,3.231,0v4.566h6.763v-4.566a1.616,1.616,0,1,1,3.23,0v12.234a1.616,1.616,0,1,1-3.23,0v-4.7h-6.763v4.7a1.617,1.617,0,1,1-3.231,0Z" transform="translate(-3091.845 -1142.977)" fill="#fff"/>
        <path id="Контур_774" data-name="Контур 774" d="M3157.384,1144.786a1.617,1.617,0,1,1,3.231,0v12.234a1.617,1.617,0,1,1-3.231,0Z" transform="translate(-3086.609 -1142.977)" fill="#fff"/>
        <path id="Контур_775" data-name="Контур 775" d="M3168.083,1143.021c1.572,0,4.629.516,4.629,2.412a1.368,1.368,0,0,1-1.335,1.444c-.882,0-1.486-.754-3.294-.754-2.67,0-4.049,2.261-4.049,4.888,0,2.563,1.4,4.759,4.049,4.759,1.808,0,2.542-.9,3.424-.9a1.515,1.515,0,0,1,1.421,1.463c0,2.069-3.252,2.541-4.845,2.541-4.372,0-7.408-3.467-7.408-7.925C3160.675,1146.467,3163.688,1143.021,3168.083,1143.021Z" transform="translate(-3084.945 -1143.021)" fill="#fff"/>
        <path id="Контур_776" data-name="Контур 776" d="M3173.794,1144.851a1.583,1.583,0,0,1,1.658-1.659h3.575c4.824,0,7.581,3.1,7.581,7.883,0,4.523-2.928,7.453-7.365,7.453H3175.5a1.579,1.579,0,0,1-1.7-1.615Zm3.229,10.7h2.175c2.778,0,4.048-2.046,4.048-4.631,0-2.757-1.292-4.759-4.263-4.759h-1.96Z" transform="translate(-3078.314 -1142.935)" fill="#fff"/>
        <path id="Контур_777" data-name="Контур 777" d="M3183.193,1145.066c0-1.076.539-1.874,1.68-1.874h5.34a1.435,1.435,0,0,1,1.53,1.487,1.458,1.458,0,0,1-1.53,1.486h-3.789v3.144h3.532a1.458,1.458,0,0,1,1.571,1.486,1.482,1.482,0,0,1-1.571,1.486h-3.532v3.274h3.984a1.433,1.433,0,0,1,1.529,1.486,1.458,1.458,0,0,1-1.529,1.486h-5.557a1.572,1.572,0,0,1-1.658-1.615Z" transform="translate(-3073.563 -1142.935)" fill="#fff"/>
        <path id="Контур_778" data-name="Контур 778" d="M3199.443,1145.174a1.493,1.493,0,0,1-1.442,1.594c-.884,0-1.572-.646-2.865-.646-.926,0-1.766.5-1.766,1.4,0,2.218,7.194.8,7.194,6.353,0,3.079-2.541,5-5.514,5-1.657,0-5.233-.387-5.233-2.411a1.438,1.438,0,0,1,1.444-1.53c1.012,0,2.218.84,3.618.84,1.421,0,2.2-.8,2.2-1.852,0-2.541-7.193-1.012-7.193-6.009,0-3.015,2.476-4.888,5.341-4.888C3196.429,1143.021,3199.443,1143.473,3199.443,1145.174Z" transform="translate(-3070.215 -1143.021)" fill="#fff"/>
        <path id="Контур_779" data-name="Контур 779" d="M3198.158,1144.786a1.616,1.616,0,1,1,3.229,0v12.234a1.616,1.616,0,1,1-3.229,0Z" transform="translate(-3065.998 -1142.977)" fill="#fff"/>
        <path id="Контур_780" data-name="Контур 780" d="M3214.01,1149.525c1.358,0,1.9.689,1.9,2.067,0,4.157-2.713,7.279-7.021,7.279-4.372,0-7.408-3.467-7.408-7.925,0-4.479,3.014-7.925,7.408-7.925,3.252,0,5.923,1.53,5.923,3.036a1.364,1.364,0,0,1-1.335,1.507c-1.465,0-1.766-1.572-4.588-1.572-2.691,0-4.049,2.347-4.049,4.953,0,2.627,1.314,4.953,4.049,4.953a3.363,3.363,0,0,0,3.662-3.4h-2.2a1.486,1.486,0,1,1,0-2.972Z" transform="translate(-3064.321 -1143.021)" fill="#fff"/>
        <path id="Контур_781" data-name="Контур 781" d="M3212.149,1144.786a1.543,1.543,0,0,1,1.615-1.679,2.013,2.013,0,0,1,1.358.711l6.826,9.11h.044v-8.142a1.617,1.617,0,1,1,3.231,0v12.234a1.543,1.543,0,0,1-1.615,1.678,2.054,2.054,0,0,1-1.356-.71l-6.827-9h-.043v8.033a1.617,1.617,0,1,1-3.231,0Z" transform="translate(-3058.926 -1142.977)" fill="#fff"/>
      </g>
      <g id="Сгруппировать_196" data-name="Сгруппировать 196" transform="translate(0.692)">
        <path id="Контур_782" data-name="Контур 782" d="M3110.833,1104.357c0-2.521,1.573-4.2,3.779-4.2s3.78,1.68,3.78,4.2v10.288h.1c1.575-1.942,4.516-2.624,6.877-2.624,5.932,0,10.342,3.779,10.342,10.183v14.489c0,2.519-1.575,4.2-3.779,4.2s-3.78-1.68-3.78-4.2v-13.176c0-3.517-2.2-5.2-4.935-5.2-3.1,0-4.829,2.256-4.829,5.2v13.176c0,2.519-1.574,4.2-3.78,4.2s-3.779-1.68-3.779-4.2Z" transform="translate(-3110.833 -1100.157)" fill="#fff"/>
        <path id="Контур_783" data-name="Контур 783" d="M3157.272,1122.683c0,7.874-5.406,14.54-13.544,14.54s-13.543-6.666-13.543-14.54c0-7.664,5.564-14.646,13.543-14.646S3157.272,1115.019,3157.272,1122.683Zm-19.528,0c0,3.622,1.889,7.612,5.984,7.612s5.985-3.99,5.985-7.612-1.837-7.717-5.985-7.717S3137.745,1119.061,3137.745,1122.683Z" transform="translate(-3101.05 -1096.173)" fill="#fff"/>
        <path id="Контур_784" data-name="Контур 784" d="M3150.045,1114.861a10.533,10.533,0,0,1-.787-3.569c0-1.68,1.575-3.044,3.78-3.044a3.6,3.6,0,0,1,3.569,2.992l4.357,14.436h.105l4.409-14.121c.577-2.046,1.628-3.306,3.832-3.306s3.255,1.26,3.832,3.306l4.41,14.121h.105l4.357-14.436a3.6,3.6,0,0,1,3.569-2.992,3.5,3.5,0,0,1,3.781,3.675,10.23,10.23,0,0,1-.737,2.833l-6.455,18.215c-.788,2.206-2.1,3.833-4.568,3.833-2.309,0-3.675-1.313-4.356-3.517l-3.884-12.178h-.105l-3.885,12.178c-.681,2.2-2.047,3.517-4.356,3.517-2.468,0-3.78-1.627-4.568-3.833Z" transform="translate(-3091.409 -1096.067)" fill="#fff"/>
        <path id="Контур_785" data-name="Контур 785" d="M3184.907,1125.151c.525,3.726,3.622,5.459,7.139,5.459,3.884,0,6.562-3.044,8.555-3.044a3.354,3.354,0,0,1,3.1,3.255c0,3.253-6.719,6.4-12.336,6.4-8.5,0-14.175-6.193-14.175-14.54,0-7.664,5.564-14.646,13.544-14.646,8.19,0,13.6,7.454,13.6,13.753,0,2.257-1,3.36-3.308,3.36Zm11.864-5.04c-.42-3.307-2.519-5.774-6.037-5.774-3.359,0-5.615,2.572-5.985,5.774Z" transform="translate(-3077.29 -1096.173)" fill="#fff"/>
        <path id="Контур_786" data-name="Контур 786" d="M3214.146,1116.856c-1.417,0-4.3-2.2-6.772-2.2-1.366,0-2.572.629-2.572,2.1,0,3.517,13.124,2.991,13.124,11.6,0,5.039-4.253,8.87-10.761,8.87-4.253,0-10.552-2.415-10.552-5.826,0-1.155,1.155-3.36,3.255-3.36,2.94,0,4.252,2.573,7.821,2.573,2.311,0,2.993-.735,2.993-2.153,0-3.464-13.124-2.939-13.124-11.6,0-5.248,4.252-8.818,10.236-8.818,3.728,0,9.448,1.731,9.448,5.459A3.263,3.263,0,0,1,3214.146,1116.856Z" transform="translate(-3067.472 -1096.173)" fill="#fff"/>
        <path id="Контур_787" data-name="Контур 787" d="M3216.838,1118h-1.68a3.06,3.06,0,0,1-3.306-3.306,3.228,3.228,0,0,1,3.306-3.307h1.68v-4.515c0-2.519,1.575-4.2,3.78-4.2s3.779,1.68,3.779,4.2v4.515h2.152c1.942,0,3.622.893,3.622,3.307,0,2.362-1.68,3.306-3.622,3.306H3224.4v17.429c0,2.519-1.575,4.2-3.779,4.2s-3.78-1.68-3.78-4.2Z" transform="translate(-3059.769 -1098.888)" fill="#fff"/>
      </g>
    </g>
  </g>
</svg>
